<svg width="63" height="63" viewBox="0 0 63 63" fill="none" xmlns="http://www.w3.org/2000/svg">
<path d="M15.7489 52.5011L39.0302 29.2198C40.0697 28.1803 40.5895 27.6605 41.1888 27.4658C41.716 27.2945 42.284 27.2945 42.8112 27.4658C43.4105 27.6605 43.9303 28.1803 44.9698 29.2198L56.1888 40.4388M27.5625 22.3125C27.5625 25.212 25.212 27.5625 22.3125 27.5625C19.413 27.5625 17.0625 25.212 17.0625 22.3125C17.0625 19.413 19.413 17.0625 22.3125 17.0625C25.212 17.0625 27.5625 19.413 27.5625 22.3125ZM57.75 31.5C57.75 45.9975 45.9975 57.75 31.5 57.75C17.0025 57.75 5.25 45.9975 5.25 31.5C5.25 17.0025 17.0025 5.25 31.5 5.25C45.9975 5.25 57.75 17.0025 57.75 31.5Z" stroke="black" stroke-width="2" stroke-linecap="round" stroke-linejoin="round"/>
</svg>
