<svg width="219" height="213" viewBox="0 0 219 213" fill="none" xmlns="http://www.w3.org/2000/svg">
<path d="M54.7462 177.504L135.676 98.7909C139.29 95.2763 141.097 93.5189 143.18 92.8605C145.013 92.2814 146.987 92.2814 148.82 92.8605C150.903 93.5189 152.71 95.2763 156.324 98.7909L195.323 136.722M95.8125 75.4375C95.8125 85.2406 87.6417 93.1875 77.5625 93.1875C67.4833 93.1875 59.3125 85.2406 59.3125 75.4375C59.3125 65.6344 67.4833 57.6875 77.5625 57.6875C87.6417 57.6875 95.8125 65.6344 95.8125 75.4375ZM200.75 106.5C200.75 155.515 159.896 195.25 109.5 195.25C59.104 195.25 18.25 155.515 18.25 106.5C18.25 57.4847 59.104 17.75 109.5 17.75C159.896 17.75 200.75 57.4847 200.75 106.5Z" stroke="black" stroke-width="2" stroke-linecap="round" stroke-linejoin="round"/>
</svg>
