<svg width="83" height="77" viewBox="0 0 83 77" fill="none" xmlns="http://www.w3.org/2000/svg">
<path d="M20.7485 64.168L51.4206 35.7132C52.7902 34.4426 53.475 33.8073 54.2646 33.5693C54.9592 33.3599 55.7074 33.3599 56.402 33.5693C57.1916 33.8073 57.8764 34.4426 59.246 35.7132L74.0265 49.4252M36.3125 27.2709C36.3125 30.8147 33.2158 33.6875 29.3958 33.6875C25.5758 33.6875 22.4791 30.8147 22.4791 27.2709C22.4791 23.727 25.5758 20.8542 29.3958 20.8542C33.2158 20.8542 36.3125 23.727 36.3125 27.2709ZM76.0833 38.5C76.0833 56.2192 60.5998 70.5834 41.5 70.5834C22.4001 70.5834 6.91663 56.2192 6.91663 38.5C6.91663 20.7809 22.4001 6.41669 41.5 6.41669C60.5998 6.41669 76.0833 20.7809 76.0833 38.5Z" stroke="black" stroke-width="2" stroke-linecap="round" stroke-linejoin="round"/>
</svg>
