<svg width="45" height="42" viewBox="0 0 45 42" fill="none" xmlns="http://www.w3.org/2000/svg">
<path d="M11.2492 35.0007L27.8787 19.4799C28.6212 18.7869 28.9925 18.4404 29.4206 18.3105C29.7972 18.1963 30.2028 18.1963 30.5794 18.3105C31.0075 18.4404 31.3788 18.7869 32.1213 19.4799L40.1348 26.9592M19.6875 14.875C19.6875 16.808 18.0086 18.375 15.9375 18.375C13.8664 18.375 12.1875 16.808 12.1875 14.875C12.1875 12.942 13.8664 11.375 15.9375 11.375C18.0086 11.375 19.6875 12.942 19.6875 14.875ZM41.25 21C41.25 30.665 32.8553 38.5 22.5 38.5C12.1447 38.5 3.75 30.665 3.75 21C3.75 11.335 12.1447 3.5 22.5 3.5C32.8553 3.5 41.25 11.335 41.25 21Z" stroke="white" stroke-width="2" stroke-linecap="round" stroke-linejoin="round"/>
</svg>
